solid OpenSCAD_Model
  facet normal 0.940881 0.338738 0
    outer loop
      vertex 3.80423 1.23607 14
      vertex 3.71911 1.4725 0
      vertex 3.71911 1.4725 14
    endloop
  endfacet
  facet normal 0.940881 0.338738 0
    outer loop
      vertex 3.71911 1.4725 0
      vertex 3.80423 1.23607 14
      vertex 3.80423 1.23607 0
    endloop
  endfacet
  facet normal 0.995561 0.0941161 0
    outer loop
      vertex 3.99211 0.251162 14
      vertex 3.96846 0.501332 0
      vertex 3.96846 0.501332 14
    endloop
  endfacet
  facet normal 0.995561 0.0941161 0
    outer loop
      vertex 3.96846 0.501332 0
      vertex 3.99211 0.251162 14
      vertex 3.99211 0.251162 0
    endloop
  endfacet
  facet normal 0.999507 0.0313985 0
    outer loop
      vertex 4 0 14
      vertex 3.99211 0.251162 0
      vertex 3.99211 0.251162 14
    endloop
  endfacet
  facet normal 0.999507 0.0313985 0
    outer loop
      vertex 3.99211 0.251162 0
      vertex 4 0 14
      vertex 4 0 0
    endloop
  endfacet
  facet normal 0.987688 0.156435 0
    outer loop
      vertex 3.96846 0.501332 14
      vertex 3.92915 0.749525 0
      vertex 3.92915 0.749525 14
    endloop
  endfacet
  facet normal 0.987688 0.156435 0
    outer loop
      vertex 3.92915 0.749525 0
      vertex 3.96846 0.501332 14
      vertex 3.96846 0.501332 0
    endloop
  endfacet
  facet normal 0.891003 -0.453998 0
    outer loop
      vertex 3.50523 -1.92701 14
      vertex 3.61931 -1.70312 0
      vertex 3.61931 -1.70312 14
    endloop
  endfacet
  facet normal 0.891003 -0.453998 0
    outer loop
      vertex 3.61931 -1.70312 0
      vertex 3.50523 -1.92701 14
      vertex 3.50523 -1.92701 0
    endloop
  endfacet
  facet normal 0.0941161 -0.995561 0
    outer loop
      vertex 0.251162 -3.99211 0
      vertex 0.501332 -3.96846 14
      vertex 0.251162 -3.99211 14
    endloop
  endfacet
  facet normal 0.0941161 -0.995561 0
    outer loop
      vertex 0.501332 -3.96846 14
      vertex 0.251162 -3.99211 0
      vertex 0.501332 -3.96846 0
    endloop
  endfacet
  facet normal -0.156435 -0.987688 0
    outer loop
      vertex -0.749525 -3.92915 0
      vertex -0.501332 -3.96846 14
      vertex -0.749525 -3.92915 14
    endloop
  endfacet
  facet normal -0.156435 -0.987688 -0
    outer loop
      vertex -0.501332 -3.96846 14
      vertex -0.749525 -3.92915 0
      vertex -0.501332 -3.96846 0
    endloop
  endfacet
  facet normal -0.397154 -0.917752 0
    outer loop
      vertex -1.70312 -3.61931 0
      vertex -1.4725 -3.71911 14
      vertex -1.70312 -3.61931 14
    endloop
  endfacet
  facet normal -0.397154 -0.917752 -0
    outer loop
      vertex -1.4725 -3.71911 14
      vertex -1.70312 -3.61931 0
      vertex -1.4725 -3.71911 0
    endloop
  endfacet
  facet normal -0.917752 -0.397154 0
    outer loop
      vertex -3.61931 -1.70312 0
      vertex -3.71911 -1.4725 14
      vertex -3.71911 -1.4725 0
    endloop
  endfacet
  facet normal -0.917752 -0.397154 0
    outer loop
      vertex -3.71911 -1.4725 14
      vertex -3.61931 -1.70312 0
      vertex -3.61931 -1.70312 14
    endloop
  endfacet
  facet normal 0.975914 0.218157 0
    outer loop
      vertex 3.92915 0.749525 14
      vertex 3.87433 0.994759 0
      vertex 3.87433 0.994759 14
    endloop
  endfacet
  facet normal 0.975914 0.218157 0
    outer loop
      vertex 3.87433 0.994759 0
      vertex 3.92915 0.749525 14
      vertex 3.92915 0.749525 0
    endloop
  endfacet
  facet normal 0.509043 0.860741 -0
    outer loop
      vertex 2.14331 3.37731 0
      vertex 1.92701 3.50523 14
      vertex 2.14331 3.37731 14
    endloop
  endfacet
  facet normal 0.509043 0.860741 0
    outer loop
      vertex 1.92701 3.50523 14
      vertex 2.14331 3.37731 0
      vertex 1.92701 3.50523 0
    endloop
  endfacet
  facet normal 0.0313985 -0.999507 0
    outer loop
      vertex 0 -4 0
      vertex 0.251162 -3.99211 14
      vertex 0 -4 14
    endloop
  endfacet
  facet normal 0.0313985 -0.999507 0
    outer loop
      vertex 0.251162 -3.99211 14
      vertex 0 -4 0
      vertex 0.251162 -3.99211 0
    endloop
  endfacet
  facet normal -0.860741 0.509043 0
    outer loop
      vertex -3.50523 1.92701 0
      vertex -3.37731 2.14331 14
      vertex -3.37731 2.14331 0
    endloop
  endfacet
  facet normal -0.860741 0.509043 0
    outer loop
      vertex -3.37731 2.14331 14
      vertex -3.50523 1.92701 0
      vertex -3.50523 1.92701 14
    endloop
  endfacet
  facet normal -0.66132 0.750104 0
    outer loop
      vertex -2.5497 3.08205 0
      vertex -2.73819 2.91587 14
      vertex -2.5497 3.08205 14
    endloop
  endfacet
  facet normal -0.66132 0.750104 0
    outer loop
      vertex -2.73819 2.91587 14
      vertex -2.5497 3.08205 0
      vertex -2.73819 2.91587 0
    endloop
  endfacet
  facet normal 0.827083 0.56208 0
    outer loop
      vertex 3.37731 2.14331 14
      vertex 3.23607 2.35114 0
      vertex 3.23607 2.35114 14
    endloop
  endfacet
  facet normal 0.827083 0.56208 0
    outer loop
      vertex 3.23607 2.35114 0
      vertex 3.37731 2.14331 14
      vertex 3.37731 2.14331 0
    endloop
  endfacet
  facet normal 0.860741 -0.509043 0
    outer loop
      vertex 3.37731 -2.14331 14
      vertex 3.50523 -1.92701 0
      vertex 3.50523 -1.92701 14
    endloop
  endfacet
  facet normal 0.860741 -0.509043 0
    outer loop
      vertex 3.50523 -1.92701 0
      vertex 3.37731 -2.14331 14
      vertex 3.37731 -2.14331 0
    endloop
  endfacet
  facet normal 0.707107 0.707107 0
    outer loop
      vertex 2.91587 2.73819 14
      vertex 2.73819 2.91587 0
      vertex 2.73819 2.91587 14
    endloop
  endfacet
  facet normal 0.707107 0.707107 0
    outer loop
      vertex 2.73819 2.91587 0
      vertex 2.91587 2.73819 14
      vertex 2.91587 2.73819 0
    endloop
  endfacet
  facet normal -0.827083 -0.56208 0
    outer loop
      vertex -3.23607 -2.35114 0
      vertex -3.37731 -2.14331 14
      vertex -3.37731 -2.14331 0
    endloop
  endfacet
  facet normal -0.827083 -0.56208 0
    outer loop
      vertex -3.37731 -2.14331 14
      vertex -3.23607 -2.35114 0
      vertex -3.23607 -2.35114 14
    endloop
  endfacet
  facet normal 0.750104 -0.66132 0
    outer loop
      vertex 2.91587 -2.73819 14
      vertex 3.08205 -2.5497 0
      vertex 3.08205 -2.5497 14
    endloop
  endfacet
  facet normal 0.750104 -0.66132 0
    outer loop
      vertex 3.08205 -2.5497 0
      vertex 2.91587 -2.73819 14
      vertex 2.91587 -2.73819 0
    endloop
  endfacet
  facet normal -0.999507 -0.0313985 0
    outer loop
      vertex -3.99211 -0.251162 0
      vertex -4 0 14
      vertex -4 0 0
    endloop
  endfacet
  facet normal -0.999507 -0.0313985 0
    outer loop
      vertex -4 0 14
      vertex -3.99211 -0.251162 0
      vertex -3.99211 -0.251162 14
    endloop
  endfacet
  facet normal -0.940881 -0.338738 0
    outer loop
      vertex -3.71911 -1.4725 0
      vertex -3.80423 -1.23607 14
      vertex -3.80423 -1.23607 0
    endloop
  endfacet
  facet normal -0.940881 -0.338738 0
    outer loop
      vertex -3.80423 -1.23607 14
      vertex -3.71911 -1.4725 0
      vertex -3.71911 -1.4725 14
    endloop
  endfacet
  facet normal 0.860741 0.509043 0
    outer loop
      vertex 3.50523 1.92701 14
      vertex 3.37731 2.14331 0
      vertex 3.37731 2.14331 14
    endloop
  endfacet
  facet normal 0.860741 0.509043 0
    outer loop
      vertex 3.37731 2.14331 0
      vertex 3.50523 1.92701 14
      vertex 3.50523 1.92701 0
    endloop
  endfacet
  facet normal -0.995561 -0.0941161 0
    outer loop
      vertex -3.96846 -0.501332 0
      vertex -3.99211 -0.251162 14
      vertex -3.99211 -0.251162 0
    endloop
  endfacet
  facet normal -0.995561 -0.0941161 0
    outer loop
      vertex -3.99211 -0.251162 14
      vertex -3.96846 -0.501332 0
      vertex -3.96846 -0.501332 14
    endloop
  endfacet
  facet normal -0.987688 -0.156435 0
    outer loop
      vertex -3.92915 -0.749525 0
      vertex -3.96846 -0.501332 14
      vertex -3.96846 -0.501332 0
    endloop
  endfacet
  facet normal -0.987688 -0.156435 0
    outer loop
      vertex -3.96846 -0.501332 14
      vertex -3.92915 -0.749525 0
      vertex -3.92915 -0.749525 14
    endloop
  endfacet
  facet normal 0.66132 0.750104 -0
    outer loop
      vertex 2.73819 2.91587 0
      vertex 2.5497 3.08205 14
      vertex 2.73819 2.91587 14
    endloop
  endfacet
  facet normal 0.66132 0.750104 0
    outer loop
      vertex 2.5497 3.08205 14
      vertex 2.73819 2.91587 0
      vertex 2.5497 3.08205 0
    endloop
  endfacet
  facet normal 0.987688 -0.156435 0
    outer loop
      vertex 3.92915 -0.749525 14
      vertex 3.96846 -0.501332 0
      vertex 3.96846 -0.501332 14
    endloop
  endfacet
  facet normal 0.987688 -0.156435 0
    outer loop
      vertex 3.96846 -0.501332 0
      vertex 3.92915 -0.749525 14
      vertex 3.92915 -0.749525 0
    endloop
  endfacet
  facet normal 0.338738 0.940881 -0
    outer loop
      vertex 1.4725 3.71911 0
      vertex 1.23607 3.80423 14
      vertex 1.4725 3.71911 14
    endloop
  endfacet
  facet normal 0.338738 0.940881 0
    outer loop
      vertex 1.23607 3.80423 14
      vertex 1.4725 3.71911 0
      vertex 1.23607 3.80423 0
    endloop
  endfacet
  facet normal 0.338738 -0.940881 0
    outer loop
      vertex 1.23607 -3.80423 0
      vertex 1.4725 -3.71911 14
      vertex 1.23607 -3.80423 14
    endloop
  endfacet
  facet normal 0.338738 -0.940881 0
    outer loop
      vertex 1.4725 -3.71911 14
      vertex 1.23607 -3.80423 0
      vertex 1.4725 -3.71911 0
    endloop
  endfacet
  facet normal -0.56208 0.827083 0
    outer loop
      vertex -2.14331 3.37731 0
      vertex -2.35114 3.23607 14
      vertex -2.14331 3.37731 14
    endloop
  endfacet
  facet normal -0.56208 0.827083 0
    outer loop
      vertex -2.35114 3.23607 14
      vertex -2.14331 3.37731 0
      vertex -2.35114 3.23607 0
    endloop
  endfacet
  facet normal -0.61291 0.790153 0
    outer loop
      vertex -2.35114 3.23607 0
      vertex -2.5497 3.08205 14
      vertex -2.35114 3.23607 14
    endloop
  endfacet
  facet normal -0.61291 0.790153 0
    outer loop
      vertex -2.5497 3.08205 14
      vertex -2.35114 3.23607 0
      vertex -2.5497 3.08205 0
    endloop
  endfacet
  facet normal -0.995561 0.0941161 0
    outer loop
      vertex -3.99211 0.251162 0
      vertex -3.96846 0.501332 14
      vertex -3.96846 0.501332 0
    endloop
  endfacet
  facet normal -0.995561 0.0941161 0
    outer loop
      vertex -3.96846 0.501332 14
      vertex -3.99211 0.251162 0
      vertex -3.99211 0.251162 14
    endloop
  endfacet
  facet normal -0.790153 0.61291 0
    outer loop
      vertex -3.23607 2.35114 0
      vertex -3.08205 2.5497 14
      vertex -3.08205 2.5497 0
    endloop
  endfacet
  facet normal -0.790153 0.61291 0
    outer loop
      vertex -3.08205 2.5497 14
      vertex -3.23607 2.35114 0
      vertex -3.23607 2.35114 14
    endloop
  endfacet
  facet normal -0.975914 0.218157 0
    outer loop
      vertex -3.92915 0.749525 0
      vertex -3.87433 0.994759 14
      vertex -3.87433 0.994759 0
    endloop
  endfacet
  facet normal -0.975914 0.218157 0
    outer loop
      vertex -3.87433 0.994759 14
      vertex -3.92915 0.749525 0
      vertex -3.92915 0.749525 14
    endloop
  endfacet
  facet normal 0.218157 0.975914 -0
    outer loop
      vertex 0.994759 3.87433 0
      vertex 0.749525 3.92915 14
      vertex 0.994759 3.87433 14
    endloop
  endfacet
  facet normal 0.218157 0.975914 0
    outer loop
      vertex 0.749525 3.92915 14
      vertex 0.994759 3.87433 0
      vertex 0.749525 3.92915 0
    endloop
  endfacet
  facet normal 0.509043 -0.860741 0
    outer loop
      vertex 1.92701 -3.50523 0
      vertex 2.14331 -3.37731 14
      vertex 1.92701 -3.50523 14
    endloop
  endfacet
  facet normal 0.509043 -0.860741 0
    outer loop
      vertex 2.14331 -3.37731 14
      vertex 1.92701 -3.50523 0
      vertex 2.14331 -3.37731 0
    endloop
  endfacet
  facet normal 0.453998 -0.891003 0
    outer loop
      vertex 1.70312 -3.61931 0
      vertex 1.92701 -3.50523 14
      vertex 1.70312 -3.61931 14
    endloop
  endfacet
  facet normal 0.453998 -0.891003 0
    outer loop
      vertex 1.92701 -3.50523 14
      vertex 1.70312 -3.61931 0
      vertex 1.92701 -3.50523 0
    endloop
  endfacet
  facet normal 0.56208 0.827083 -0
    outer loop
      vertex 2.35114 3.23607 0
      vertex 2.14331 3.37731 14
      vertex 2.35114 3.23607 14
    endloop
  endfacet
  facet normal 0.56208 0.827083 0
    outer loop
      vertex 2.14331 3.37731 14
      vertex 2.35114 3.23607 0
      vertex 2.14331 3.37731 0
    endloop
  endfacet
  facet normal 0.960301 -0.278964 0
    outer loop
      vertex 3.80423 -1.23607 14
      vertex 3.87433 -0.994759 0
      vertex 3.87433 -0.994759 14
    endloop
  endfacet
  facet normal 0.960301 -0.278964 0
    outer loop
      vertex 3.87433 -0.994759 0
      vertex 3.80423 -1.23607 14
      vertex 3.80423 -1.23607 0
    endloop
  endfacet
  facet normal -0.940881 0.338738 0
    outer loop
      vertex -3.80423 1.23607 0
      vertex -3.71911 1.4725 14
      vertex -3.71911 1.4725 0
    endloop
  endfacet
  facet normal -0.940881 0.338738 0
    outer loop
      vertex -3.71911 1.4725 14
      vertex -3.80423 1.23607 0
      vertex -3.80423 1.23607 14
    endloop
  endfacet
  facet normal 0.891003 0.453998 0
    outer loop
      vertex 3.61931 1.70312 14
      vertex 3.50523 1.92701 0
      vertex 3.50523 1.92701 14
    endloop
  endfacet
  facet normal 0.891003 0.453998 0
    outer loop
      vertex 3.50523 1.92701 0
      vertex 3.61931 1.70312 14
      vertex 3.61931 1.70312 0
    endloop
  endfacet
  facet normal 0.917752 0.397154 0
    outer loop
      vertex 3.71911 1.4725 14
      vertex 3.61931 1.70312 0
      vertex 3.61931 1.70312 14
    endloop
  endfacet
  facet normal 0.917752 0.397154 0
    outer loop
      vertex 3.61931 1.70312 0
      vertex 3.71911 1.4725 14
      vertex 3.71911 1.4725 0
    endloop
  endfacet
  facet normal 0.940881 -0.338738 0
    outer loop
      vertex 3.71911 -1.4725 14
      vertex 3.80423 -1.23607 0
      vertex 3.80423 -1.23607 14
    endloop
  endfacet
  facet normal 0.940881 -0.338738 0
    outer loop
      vertex 3.80423 -1.23607 0
      vertex 3.71911 -1.4725 14
      vertex 3.71911 -1.4725 0
    endloop
  endfacet
  facet normal -0.707107 -0.707107 0
    outer loop
      vertex -2.73819 -2.91587 0
      vertex -2.91587 -2.73819 14
      vertex -2.91587 -2.73819 0
    endloop
  endfacet
  facet normal -0.707107 -0.707107 0
    outer loop
      vertex -2.91587 -2.73819 14
      vertex -2.73819 -2.91587 0
      vertex -2.73819 -2.91587 14
    endloop
  endfacet
  facet normal -0.987688 0.156435 0
    outer loop
      vertex -3.96846 0.501332 0
      vertex -3.92915 0.749525 14
      vertex -3.92915 0.749525 0
    endloop
  endfacet
  facet normal -0.987688 0.156435 0
    outer loop
      vertex -3.92915 0.749525 14
      vertex -3.96846 0.501332 0
      vertex -3.96846 0.501332 14
    endloop
  endfacet
  facet normal -0.0941161 0.995561 0
    outer loop
      vertex -0.251162 3.99211 0
      vertex -0.501332 3.96846 14
      vertex -0.251162 3.99211 14
    endloop
  endfacet
  facet normal -0.0941161 0.995561 0
    outer loop
      vertex -0.501332 3.96846 14
      vertex -0.251162 3.99211 0
      vertex -0.501332 3.96846 0
    endloop
  endfacet
  facet normal -0.975914 -0.218157 0
    outer loop
      vertex -3.87433 -0.994759 0
      vertex -3.92915 -0.749525 14
      vertex -3.92915 -0.749525 0
    endloop
  endfacet
  facet normal -0.975914 -0.218157 0
    outer loop
      vertex -3.92915 -0.749525 14
      vertex -3.87433 -0.994759 0
      vertex -3.87433 -0.994759 14
    endloop
  endfacet
  facet normal 0.790153 -0.61291 0
    outer loop
      vertex 3.08205 -2.5497 14
      vertex 3.23607 -2.35114 0
      vertex 3.23607 -2.35114 14
    endloop
  endfacet
  facet normal 0.790153 -0.61291 0
    outer loop
      vertex 3.23607 -2.35114 0
      vertex 3.08205 -2.5497 14
      vertex 3.08205 -2.5497 0
    endloop
  endfacet
  facet normal 0.278964 -0.960301 0
    outer loop
      vertex 0.994759 -3.87433 0
      vertex 1.23607 -3.80423 14
      vertex 0.994759 -3.87433 14
    endloop
  endfacet
  facet normal 0.278964 -0.960301 0
    outer loop
      vertex 1.23607 -3.80423 14
      vertex 0.994759 -3.87433 0
      vertex 1.23607 -3.80423 0
    endloop
  endfacet
  facet normal 0.218157 -0.975914 0
    outer loop
      vertex 0.749525 -3.92915 0
      vertex 0.994759 -3.87433 14
      vertex 0.749525 -3.92915 14
    endloop
  endfacet
  facet normal 0.218157 -0.975914 0
    outer loop
      vertex 0.994759 -3.87433 14
      vertex 0.749525 -3.92915 0
      vertex 0.994759 -3.87433 0
    endloop
  endfacet
  facet normal 0.917752 -0.397154 0
    outer loop
      vertex 3.61931 -1.70312 14
      vertex 3.71911 -1.4725 0
      vertex 3.71911 -1.4725 14
    endloop
  endfacet
  facet normal 0.917752 -0.397154 0
    outer loop
      vertex 3.71911 -1.4725 0
      vertex 3.61931 -1.70312 14
      vertex 3.61931 -1.70312 0
    endloop
  endfacet
  facet normal -0.509043 -0.860741 0
    outer loop
      vertex -2.14331 -3.37731 0
      vertex -1.92701 -3.50523 14
      vertex -2.14331 -3.37731 14
    endloop
  endfacet
  facet normal -0.509043 -0.860741 -0
    outer loop
      vertex -1.92701 -3.50523 14
      vertex -2.14331 -3.37731 0
      vertex -1.92701 -3.50523 0
    endloop
  endfacet
  facet normal 0.397154 -0.917752 0
    outer loop
      vertex 1.4725 -3.71911 0
      vertex 1.70312 -3.61931 14
      vertex 1.4725 -3.71911 14
    endloop
  endfacet
  facet normal 0.397154 -0.917752 0
    outer loop
      vertex 1.70312 -3.61931 14
      vertex 1.4725 -3.71911 0
      vertex 1.70312 -3.61931 0
    endloop
  endfacet
  facet normal -0.278964 -0.960301 0
    outer loop
      vertex -1.23607 -3.80423 0
      vertex -0.994759 -3.87433 14
      vertex -1.23607 -3.80423 14
    endloop
  endfacet
  facet normal -0.278964 -0.960301 -0
    outer loop
      vertex -0.994759 -3.87433 14
      vertex -1.23607 -3.80423 0
      vertex -0.994759 -3.87433 0
    endloop
  endfacet
  facet normal 0.0941161 0.995561 -0
    outer loop
      vertex 0.501332 3.96846 0
      vertex 0.251162 3.99211 14
      vertex 0.501332 3.96846 14
    endloop
  endfacet
  facet normal 0.0941161 0.995561 0
    outer loop
      vertex 0.251162 3.99211 14
      vertex 0.501332 3.96846 0
      vertex 0.251162 3.99211 0
    endloop
  endfacet
  facet normal -0.750104 0.66132 0
    outer loop
      vertex -3.08205 2.5497 0
      vertex -2.91587 2.73819 14
      vertex -2.91587 2.73819 0
    endloop
  endfacet
  facet normal -0.750104 0.66132 0
    outer loop
      vertex -2.91587 2.73819 14
      vertex -3.08205 2.5497 0
      vertex -3.08205 2.5497 14
    endloop
  endfacet
  facet normal -0.960301 -0.278964 0
    outer loop
      vertex -3.80423 -1.23607 0
      vertex -3.87433 -0.994759 14
      vertex -3.87433 -0.994759 0
    endloop
  endfacet
  facet normal -0.960301 -0.278964 0
    outer loop
      vertex -3.87433 -0.994759 14
      vertex -3.80423 -1.23607 0
      vertex -3.80423 -1.23607 14
    endloop
  endfacet
  facet normal -0.860741 -0.509043 0
    outer loop
      vertex -3.37731 -2.14331 0
      vertex -3.50523 -1.92701 14
      vertex -3.50523 -1.92701 0
    endloop
  endfacet
  facet normal -0.860741 -0.509043 0
    outer loop
      vertex -3.50523 -1.92701 14
      vertex -3.37731 -2.14331 0
      vertex -3.37731 -2.14331 14
    endloop
  endfacet
  facet normal -0.338738 0.940881 0
    outer loop
      vertex -1.23607 3.80423 0
      vertex -1.4725 3.71911 14
      vertex -1.23607 3.80423 14
    endloop
  endfacet
  facet normal -0.338738 0.940881 0
    outer loop
      vertex -1.4725 3.71911 14
      vertex -1.23607 3.80423 0
      vertex -1.4725 3.71911 0
    endloop
  endfacet
  facet normal 0.61291 0.790153 -0
    outer loop
      vertex 2.5497 3.08205 0
      vertex 2.35114 3.23607 14
      vertex 2.5497 3.08205 14
    endloop
  endfacet
  facet normal 0.61291 0.790153 0
    outer loop
      vertex 2.35114 3.23607 14
      vertex 2.5497 3.08205 0
      vertex 2.35114 3.23607 0
    endloop
  endfacet
  facet normal -0.750104 -0.66132 0
    outer loop
      vertex -2.91587 -2.73819 0
      vertex -3.08205 -2.5497 14
      vertex -3.08205 -2.5497 0
    endloop
  endfacet
  facet normal -0.750104 -0.66132 0
    outer loop
      vertex -3.08205 -2.5497 14
      vertex -2.91587 -2.73819 0
      vertex -2.91587 -2.73819 14
    endloop
  endfacet
  facet normal -0.0313985 0.999507 0
    outer loop
      vertex 0 4 0
      vertex -0.251162 3.99211 14
      vertex 0 4 14
    endloop
  endfacet
  facet normal -0.0313985 0.999507 0
    outer loop
      vertex -0.251162 3.99211 14
      vertex 0 4 0
      vertex -0.251162 3.99211 0
    endloop
  endfacet
  facet normal 0.995561 -0.0941161 0
    outer loop
      vertex 3.96846 -0.501332 14
      vertex 3.99211 -0.251162 0
      vertex 3.99211 -0.251162 14
    endloop
  endfacet
  facet normal 0.995561 -0.0941161 0
    outer loop
      vertex 3.99211 -0.251162 0
      vertex 3.96846 -0.501332 14
      vertex 3.96846 -0.501332 0
    endloop
  endfacet
  facet normal 0.397154 0.917752 -0
    outer loop
      vertex 1.70312 3.61931 0
      vertex 1.4725 3.71911 14
      vertex 1.70312 3.61931 14
    endloop
  endfacet
  facet normal 0.397154 0.917752 0
    outer loop
      vertex 1.4725 3.71911 14
      vertex 1.70312 3.61931 0
      vertex 1.4725 3.71911 0
    endloop
  endfacet
  facet normal 0.453998 0.891003 -0
    outer loop
      vertex 1.92701 3.50523 0
      vertex 1.70312 3.61931 14
      vertex 1.92701 3.50523 14
    endloop
  endfacet
  facet normal 0.453998 0.891003 0
    outer loop
      vertex 1.70312 3.61931 14
      vertex 1.92701 3.50523 0
      vertex 1.70312 3.61931 0
    endloop
  endfacet
  facet normal 0.750104 0.66132 0
    outer loop
      vertex 3.08205 2.5497 14
      vertex 2.91587 2.73819 0
      vertex 2.91587 2.73819 14
    endloop
  endfacet
  facet normal 0.750104 0.66132 0
    outer loop
      vertex 2.91587 2.73819 0
      vertex 3.08205 2.5497 14
      vertex 3.08205 2.5497 0
    endloop
  endfacet
  facet normal -0.707107 0.707107 0
    outer loop
      vertex -2.91587 2.73819 0
      vertex -2.73819 2.91587 14
      vertex -2.73819 2.91587 0
    endloop
  endfacet
  facet normal -0.707107 0.707107 0
    outer loop
      vertex -2.73819 2.91587 14
      vertex -2.91587 2.73819 0
      vertex -2.91587 2.73819 14
    endloop
  endfacet
  facet normal -0.891003 -0.453998 0
    outer loop
      vertex -3.50523 -1.92701 0
      vertex -3.61931 -1.70312 14
      vertex -3.61931 -1.70312 0
    endloop
  endfacet
  facet normal -0.891003 -0.453998 0
    outer loop
      vertex -3.61931 -1.70312 14
      vertex -3.50523 -1.92701 0
      vertex -3.50523 -1.92701 14
    endloop
  endfacet
  facet normal 0.960301 0.278964 0
    outer loop
      vertex 3.87433 0.994759 14
      vertex 3.80423 1.23607 0
      vertex 3.80423 1.23607 14
    endloop
  endfacet
  facet normal 0.960301 0.278964 0
    outer loop
      vertex 3.80423 1.23607 0
      vertex 3.87433 0.994759 14
      vertex 3.87433 0.994759 0
    endloop
  endfacet
  facet normal -0.827083 0.56208 0
    outer loop
      vertex -3.37731 2.14331 0
      vertex -3.23607 2.35114 14
      vertex -3.23607 2.35114 0
    endloop
  endfacet
  facet normal -0.827083 0.56208 0
    outer loop
      vertex -3.23607 2.35114 14
      vertex -3.37731 2.14331 0
      vertex -3.37731 2.14331 14
    endloop
  endfacet
  facet normal 0.975914 -0.218157 0
    outer loop
      vertex 3.87433 -0.994759 14
      vertex 3.92915 -0.749525 0
      vertex 3.92915 -0.749525 14
    endloop
  endfacet
  facet normal 0.975914 -0.218157 0
    outer loop
      vertex 3.92915 -0.749525 0
      vertex 3.87433 -0.994759 14
      vertex 3.87433 -0.994759 0
    endloop
  endfacet
  facet normal -0.509043 0.860741 0
    outer loop
      vertex -1.92701 3.50523 0
      vertex -2.14331 3.37731 14
      vertex -1.92701 3.50523 14
    endloop
  endfacet
  facet normal -0.509043 0.860741 0
    outer loop
      vertex -2.14331 3.37731 14
      vertex -1.92701 3.50523 0
      vertex -2.14331 3.37731 0
    endloop
  endfacet
  facet normal 0.0313985 0.999507 -0
    outer loop
      vertex 0.251162 3.99211 0
      vertex 0 4 14
      vertex 0.251162 3.99211 14
    endloop
  endfacet
  facet normal 0.0313985 0.999507 0
    outer loop
      vertex 0 4 14
      vertex 0.251162 3.99211 0
      vertex 0 4 0
    endloop
  endfacet
  facet normal 0.66132 -0.750104 0
    outer loop
      vertex 2.5497 -3.08205 0
      vertex 2.73819 -2.91587 14
      vertex 2.5497 -3.08205 14
    endloop
  endfacet
  facet normal 0.66132 -0.750104 0
    outer loop
      vertex 2.73819 -2.91587 14
      vertex 2.5497 -3.08205 0
      vertex 2.73819 -2.91587 0
    endloop
  endfacet
  facet normal -0.0941161 -0.995561 0
    outer loop
      vertex -0.501332 -3.96846 0
      vertex -0.251162 -3.99211 14
      vertex -0.501332 -3.96846 14
    endloop
  endfacet
  facet normal -0.0941161 -0.995561 -0
    outer loop
      vertex -0.251162 -3.99211 14
      vertex -0.501332 -3.96846 0
      vertex -0.251162 -3.99211 0
    endloop
  endfacet
  facet normal -0.278964 0.960301 0
    outer loop
      vertex -0.994759 3.87433 0
      vertex -1.23607 3.80423 14
      vertex -0.994759 3.87433 14
    endloop
  endfacet
  facet normal -0.278964 0.960301 0
    outer loop
      vertex -1.23607 3.80423 14
      vertex -0.994759 3.87433 0
      vertex -1.23607 3.80423 0
    endloop
  endfacet
  facet normal -0.218157 0.975914 0
    outer loop
      vertex -0.749525 3.92915 0
      vertex -0.994759 3.87433 14
      vertex -0.749525 3.92915 14
    endloop
  endfacet
  facet normal -0.218157 0.975914 0
    outer loop
      vertex -0.994759 3.87433 14
      vertex -0.749525 3.92915 0
      vertex -0.994759 3.87433 0
    endloop
  endfacet
  facet normal -0.917752 0.397154 0
    outer loop
      vertex -3.71911 1.4725 0
      vertex -3.61931 1.70312 14
      vertex -3.61931 1.70312 0
    endloop
  endfacet
  facet normal -0.917752 0.397154 0
    outer loop
      vertex -3.61931 1.70312 14
      vertex -3.71911 1.4725 0
      vertex -3.71911 1.4725 14
    endloop
  endfacet
  facet normal -0.218157 -0.975914 0
    outer loop
      vertex -0.994759 -3.87433 0
      vertex -0.749525 -3.92915 14
      vertex -0.994759 -3.87433 14
    endloop
  endfacet
  facet normal -0.218157 -0.975914 -0
    outer loop
      vertex -0.749525 -3.92915 14
      vertex -0.994759 -3.87433 0
      vertex -0.749525 -3.92915 0
    endloop
  endfacet
  facet normal -0.156435 0.987688 0
    outer loop
      vertex -0.501332 3.96846 0
      vertex -0.749525 3.92915 14
      vertex -0.501332 3.96846 14
    endloop
  endfacet
  facet normal -0.156435 0.987688 0
    outer loop
      vertex -0.749525 3.92915 14
      vertex -0.501332 3.96846 0
      vertex -0.749525 3.92915 0
    endloop
  endfacet
  facet normal -0.999507 0.0313985 0
    outer loop
      vertex -4 0 0
      vertex -3.99211 0.251162 14
      vertex -3.99211 0.251162 0
    endloop
  endfacet
  facet normal -0.999507 0.0313985 0
    outer loop
      vertex -3.99211 0.251162 14
      vertex -4 0 0
      vertex -4 0 14
    endloop
  endfacet
  facet normal 0.156435 -0.987688 0
    outer loop
      vertex 0.501332 -3.96846 0
      vertex 0.749525 -3.92915 14
      vertex 0.501332 -3.96846 14
    endloop
  endfacet
  facet normal 0.156435 -0.987688 0
    outer loop
      vertex 0.749525 -3.92915 14
      vertex 0.501332 -3.96846 0
      vertex 0.749525 -3.92915 0
    endloop
  endfacet
  facet normal -0.66132 -0.750104 0
    outer loop
      vertex -2.73819 -2.91587 0
      vertex -2.5497 -3.08205 14
      vertex -2.73819 -2.91587 14
    endloop
  endfacet
  facet normal -0.66132 -0.750104 -0
    outer loop
      vertex -2.5497 -3.08205 14
      vertex -2.73819 -2.91587 0
      vertex -2.5497 -3.08205 0
    endloop
  endfacet
  facet normal -0 0 1
    outer loop
      vertex -2.425 -0.95 14
      vertex -0.95 -2.425 14
      vertex -0.95 -0.95 14
    endloop
  endfacet
  facet normal 0 0 1
    outer loop
      vertex -0.95 -2.425 14
      vertex -1.23607 -3.80423 14
      vertex -0.994759 -3.87433 14
    endloop
  endfacet
  facet normal 0 0 1
    outer loop
      vertex -0.95 -2.425 14
      vertex -1.4725 -3.71911 14
      vertex -1.23607 -3.80423 14
    endloop
  endfacet
  facet normal 0 0 1
    outer loop
      vertex -0.95 -2.425 14
      vertex -1.70312 -3.61931 14
      vertex -1.4725 -3.71911 14
    endloop
  endfacet
  facet normal 0 0 1
    outer loop
      vertex -0.95 -2.425 14
      vertex -1.92701 -3.50523 14
      vertex -1.70312 -3.61931 14
    endloop
  endfacet
  facet normal 0 0 1
    outer loop
      vertex -0.95 -2.425 14
      vertex -2.14331 -3.37731 14
      vertex -1.92701 -3.50523 14
    endloop
  endfacet
  facet normal 0 0 1
    outer loop
      vertex -0.95 -2.425 14
      vertex -2.35114 -3.23607 14
      vertex -2.14331 -3.37731 14
    endloop
  endfacet
  facet normal 0 0 1
    outer loop
      vertex -2.73819 -2.91587 14
      vertex -0.95 -2.425 14
      vertex -2.425 -0.95 14
    endloop
  endfacet
  facet normal 0 0 1
    outer loop
      vertex -0.95 -2.425 14
      vertex -2.5497 -3.08205 14
      vertex -2.35114 -3.23607 14
    endloop
  endfacet
  facet normal -0 0 1
    outer loop
      vertex -2.91587 2.73819 14
      vertex -2.425 0.95 14
      vertex -2.73819 2.91587 14
    endloop
  endfacet
  facet normal -0 0 1
    outer loop
      vertex -3.08205 2.5497 14
      vertex -2.425 0.95 14
      vertex -2.91587 2.73819 14
    endloop
  endfacet
  facet normal 0 0 1
    outer loop
      vertex -0.95 -2.425 14
      vertex -2.73819 -2.91587 14
      vertex -2.5497 -3.08205 14
    endloop
  endfacet
  facet normal -0 0 1
    outer loop
      vertex -3.23607 2.35114 14
      vertex -2.425 0.95 14
      vertex -3.08205 2.5497 14
    endloop
  endfacet
  facet normal 0 0 1
    outer loop
      vertex -2.425 -0.95 14
      vertex -2.91587 -2.73819 14
      vertex -2.73819 -2.91587 14
    endloop
  endfacet
  facet normal -0 0 1
    outer loop
      vertex -3.37731 2.14331 14
      vertex -2.425 0.95 14
      vertex -3.23607 2.35114 14
    endloop
  endfacet
  facet normal 0 0 1
    outer loop
      vertex -2.425 -0.95 14
      vertex -3.08205 -2.5497 14
      vertex -2.91587 -2.73819 14
    endloop
  endfacet
  facet normal -0 0 1
    outer loop
      vertex -3.50523 1.92701 14
      vertex -2.425 0.95 14
      vertex -3.37731 2.14331 14
    endloop
  endfacet
  facet normal 0 0 1
    outer loop
      vertex -2.425 -0.95 14
      vertex -3.23607 -2.35114 14
      vertex -3.08205 -2.5497 14
    endloop
  endfacet
  facet normal -0 0 1
    outer loop
      vertex -3.61931 1.70312 14
      vertex -2.425 0.95 14
      vertex -3.50523 1.92701 14
    endloop
  endfacet
  facet normal 0 0 1
    outer loop
      vertex -2.425 -0.95 14
      vertex -3.37731 -2.14331 14
      vertex -3.23607 -2.35114 14
    endloop
  endfacet
  facet normal -0 0 1
    outer loop
      vertex -3.71911 1.4725 14
      vertex -2.425 0.95 14
      vertex -3.61931 1.70312 14
    endloop
  endfacet
  facet normal 0 0 1
    outer loop
      vertex -2.425 -0.95 14
      vertex -3.50523 -1.92701 14
      vertex -3.37731 -2.14331 14
    endloop
  endfacet
  facet normal -0 0 1
    outer loop
      vertex -3.80423 1.23607 14
      vertex -2.425 0.95 14
      vertex -3.71911 1.4725 14
    endloop
  endfacet
  facet normal 0 0 1
    outer loop
      vertex -2.425 -0.95 14
      vertex -3.61931 -1.70312 14
      vertex -3.50523 -1.92701 14
    endloop
  endfacet
  facet normal -0 0 1
    outer loop
      vertex -3.87433 0.994759 14
      vertex -2.425 0.95 14
      vertex -3.80423 1.23607 14
    endloop
  endfacet
  facet normal 0 0 1
    outer loop
      vertex -2.425 -0.95 14
      vertex -3.71911 -1.4725 14
      vertex -3.61931 -1.70312 14
    endloop
  endfacet
  facet normal 0 0 1
    outer loop
      vertex -3.92915 0.749525 14
      vertex -2.425 0.95 14
      vertex -3.87433 0.994759 14
    endloop
  endfacet
  facet normal 0 0 1
    outer loop
      vertex -2.425 -0.95 14
      vertex -3.80423 -1.23607 14
      vertex -3.71911 -1.4725 14
    endloop
  endfacet
  facet normal 0 0 1
    outer loop
      vertex -3.96846 0.501332 14
      vertex -2.425 0.95 14
      vertex -3.92915 0.749525 14
    endloop
  endfacet
  facet normal 0 0 1
    outer loop
      vertex -2.425 -0.95 14
      vertex -3.87433 -0.994759 14
      vertex -3.80423 -1.23607 14
    endloop
  endfacet
  facet normal 0 0 1
    outer loop
      vertex -3.99211 0.251162 14
      vertex -2.425 0.95 14
      vertex -3.96846 0.501332 14
    endloop
  endfacet
  facet normal 0 0 1
    outer loop
      vertex -2.425 -0.95 14
      vertex -3.92915 -0.749525 14
      vertex -3.87433 -0.994759 14
    endloop
  endfacet
  facet normal 0 0 1
    outer loop
      vertex -4 0 14
      vertex -2.425 0.95 14
      vertex -3.99211 0.251162 14
    endloop
  endfacet
  facet normal 0 0 1
    outer loop
      vertex -2.425 -0.95 14
      vertex -3.96846 -0.501332 14
      vertex -3.92915 -0.749525 14
    endloop
  endfacet
  facet normal 0 0 1
    outer loop
      vertex -2.425 0.95 14
      vertex -4 0 14
      vertex -2.425 -0.95 14
    endloop
  endfacet
  facet normal 0 0 1
    outer loop
      vertex -2.425 -0.95 14
      vertex -3.99211 -0.251162 14
      vertex -3.96846 -0.501332 14
    endloop
  endfacet
  facet normal 0 0 1
    outer loop
      vertex -2.425 -0.95 14
      vertex -4 0 14
      vertex -3.99211 -0.251162 14
    endloop
  endfacet
  facet normal 0 0 1
    outer loop
      vertex 0.749525 3.92915 14
      vertex 0.95 2.425 14
      vertex 0.994759 3.87433 14
    endloop
  endfacet
  facet normal 0 0 1
    outer loop
      vertex 0.501332 3.96846 14
      vertex 0.95 2.425 14
      vertex 0.749525 3.92915 14
    endloop
  endfacet
  facet normal 0 0 1
    outer loop
      vertex 0.251162 3.99211 14
      vertex 0.95 2.425 14
      vertex 0.501332 3.96846 14
    endloop
  endfacet
  facet normal 0 0 1
    outer loop
      vertex 0 4 14
      vertex 0.95 2.425 14
      vertex 0.251162 3.99211 14
    endloop
  endfacet
  facet normal 0 0 1
    outer loop
      vertex -0.95 2.425 14
      vertex 0 4 14
      vertex -0.251162 3.99211 14
    endloop
  endfacet
  facet normal 0 0 1
    outer loop
      vertex -0.95 2.425 14
      vertex -0.251162 3.99211 14
      vertex -0.501332 3.96846 14
    endloop
  endfacet
  facet normal 0 0 1
    outer loop
      vertex -0.95 2.425 14
      vertex -0.501332 3.96846 14
      vertex -0.749525 3.92915 14
    endloop
  endfacet
  facet normal 0 0 1
    outer loop
      vertex 0 4 14
      vertex -0.95 2.425 14
      vertex 0.95 2.425 14
    endloop
  endfacet
  facet normal -0 0 1
    outer loop
      vertex -0.994759 3.87433 14
      vertex -0.95 2.425 14
      vertex -0.749525 3.92915 14
    endloop
  endfacet
  facet normal -0 0 1
    outer loop
      vertex -1.23607 3.80423 14
      vertex -0.95 2.425 14
      vertex -0.994759 3.87433 14
    endloop
  endfacet
  facet normal -0 0 1
    outer loop
      vertex -1.4725 3.71911 14
      vertex -0.95 2.425 14
      vertex -1.23607 3.80423 14
    endloop
  endfacet
  facet normal -0 0 1
    outer loop
      vertex -1.70312 3.61931 14
      vertex -0.95 2.425 14
      vertex -1.4725 3.71911 14
    endloop
  endfacet
  facet normal -0 0 1
    outer loop
      vertex -1.92701 3.50523 14
      vertex -0.95 2.425 14
      vertex -1.70312 3.61931 14
    endloop
  endfacet
  facet normal -0 0 1
    outer loop
      vertex -2.14331 3.37731 14
      vertex -0.95 2.425 14
      vertex -1.92701 3.50523 14
    endloop
  endfacet
  facet normal -0 0 1
    outer loop
      vertex -2.35114 3.23607 14
      vertex -0.95 2.425 14
      vertex -2.14331 3.37731 14
    endloop
  endfacet
  facet normal -0 0 1
    outer loop
      vertex -2.5497 3.08205 14
      vertex -0.95 2.425 14
      vertex -2.35114 3.23607 14
    endloop
  endfacet
  facet normal -0 0 1
    outer loop
      vertex -2.73819 2.91587 14
      vertex -0.95 2.425 14
      vertex -2.5497 3.08205 14
    endloop
  endfacet
  facet normal 0 0 1
    outer loop
      vertex -0.95 2.425 14
      vertex -2.73819 2.91587 14
      vertex -2.425 0.95 14
    endloop
  endfacet
  facet normal 0 0 1
    outer loop
      vertex -0.95 2.425 14
      vertex -2.425 0.95 14
      vertex -0.95 0.95 14
    endloop
  endfacet
  facet normal 0 0 1
    outer loop
      vertex 2.425 0.95 14
      vertex 4 0 14
      vertex 3.99211 0.251162 14
    endloop
  endfacet
  facet normal 0 0 1
    outer loop
      vertex 2.425 0.95 14
      vertex 3.99211 0.251162 14
      vertex 3.96846 0.501332 14
    endloop
  endfacet
  facet normal 0 0 1
    outer loop
      vertex 2.425 -0.95 14
      vertex 4 0 14
      vertex 2.425 0.95 14
    endloop
  endfacet
  facet normal 0 0 1
    outer loop
      vertex 2.425 0.95 14
      vertex 3.96846 0.501332 14
      vertex 3.92915 0.749525 14
    endloop
  endfacet
  facet normal 0 0 1
    outer loop
      vertex 4 0 14
      vertex 2.425 -0.95 14
      vertex 3.99211 -0.251162 14
    endloop
  endfacet
  facet normal -0 0 1
    outer loop
      vertex 2.425 0.95 14
      vertex 3.92915 0.749525 14
      vertex 3.87433 0.994759 14
    endloop
  endfacet
  facet normal 0 0 1
    outer loop
      vertex 3.99211 -0.251162 14
      vertex 2.425 -0.95 14
      vertex 3.96846 -0.501332 14
    endloop
  endfacet
  facet normal 0 0 1
    outer loop
      vertex 2.425 0.95 14
      vertex 3.87433 0.994759 14
      vertex 3.80423 1.23607 14
    endloop
  endfacet
  facet normal 0 0 1
    outer loop
      vertex 3.96846 -0.501332 14
      vertex 2.425 -0.95 14
      vertex 3.92915 -0.749525 14
    endloop
  endfacet
  facet normal 0 0 1
    outer loop
      vertex 2.425 0.95 14
      vertex 3.80423 1.23607 14
      vertex 3.71911 1.4725 14
    endloop
  endfacet
  facet normal 0 0 1
    outer loop
      vertex 3.92915 -0.749525 14
      vertex 2.425 -0.95 14
      vertex 3.87433 -0.994759 14
    endloop
  endfacet
  facet normal 0 0 1
    outer loop
      vertex 2.425 0.95 14
      vertex 3.71911 1.4725 14
      vertex 3.61931 1.70312 14
    endloop
  endfacet
  facet normal 0 0 1
    outer loop
      vertex 3.87433 -0.994759 14
      vertex 2.425 -0.95 14
      vertex 3.80423 -1.23607 14
    endloop
  endfacet
  facet normal 0 0 1
    outer loop
      vertex 2.425 0.95 14
      vertex 3.61931 1.70312 14
      vertex 3.50523 1.92701 14
    endloop
  endfacet
  facet normal 0 0 1
    outer loop
      vertex 3.80423 -1.23607 14
      vertex 2.425 -0.95 14
      vertex 3.71911 -1.4725 14
    endloop
  endfacet
  facet normal 0 0 1
    outer loop
      vertex 2.425 0.95 14
      vertex 3.50523 1.92701 14
      vertex 3.37731 2.14331 14
    endloop
  endfacet
  facet normal 0 0 1
    outer loop
      vertex 3.71911 -1.4725 14
      vertex 2.425 -0.95 14
      vertex 3.61931 -1.70312 14
    endloop
  endfacet
  facet normal 0 0 1
    outer loop
      vertex 2.425 0.95 14
      vertex 3.37731 2.14331 14
      vertex 3.23607 2.35114 14
    endloop
  endfacet
  facet normal 0 0 1
    outer loop
      vertex 3.61931 -1.70312 14
      vertex 2.425 -0.95 14
      vertex 3.50523 -1.92701 14
    endloop
  endfacet
  facet normal 0 0 1
    outer loop
      vertex 2.425 0.95 14
      vertex 3.23607 2.35114 14
      vertex 3.08205 2.5497 14
    endloop
  endfacet
  facet normal 0 0 1
    outer loop
      vertex 3.50523 -1.92701 14
      vertex 2.425 -0.95 14
      vertex 3.37731 -2.14331 14
    endloop
  endfacet
  facet normal 0 0 1
    outer loop
      vertex 2.425 0.95 14
      vertex 3.08205 2.5497 14
      vertex 2.91587 2.73819 14
    endloop
  endfacet
  facet normal 0 0 1
    outer loop
      vertex 3.37731 -2.14331 14
      vertex 2.425 -0.95 14
      vertex 3.23607 -2.35114 14
    endloop
  endfacet
  facet normal 0 0 1
    outer loop
      vertex 2.425 0.95 14
      vertex 2.91587 2.73819 14
      vertex 2.73819 2.91587 14
    endloop
  endfacet
  facet normal 0 0 1
    outer loop
      vertex 3.23607 -2.35114 14
      vertex 2.425 -0.95 14
      vertex 3.08205 -2.5497 14
    endloop
  endfacet
  facet normal 0 0 1
    outer loop
      vertex 0.95 2.425 14
      vertex 2.73819 2.91587 14
      vertex 2.5497 3.08205 14
    endloop
  endfacet
  facet normal 0 0 1
    outer loop
      vertex 3.08205 -2.5497 14
      vertex 2.425 -0.95 14
      vertex 2.91587 -2.73819 14
    endloop
  endfacet
  facet normal 0 0 1
    outer loop
      vertex 2.91587 -2.73819 14
      vertex 2.425 -0.95 14
      vertex 2.73819 -2.91587 14
    endloop
  endfacet
  facet normal 0 0 1
    outer loop
      vertex 0.95 2.425 14
      vertex 2.5497 3.08205 14
      vertex 2.35114 3.23607 14
    endloop
  endfacet
  facet normal 0 0 1
    outer loop
      vertex 0.95 2.425 14
      vertex 2.35114 3.23607 14
      vertex 2.14331 3.37731 14
    endloop
  endfacet
  facet normal 0 0 1
    outer loop
      vertex 0.95 2.425 14
      vertex 2.14331 3.37731 14
      vertex 1.92701 3.50523 14
    endloop
  endfacet
  facet normal 0 0 1
    outer loop
      vertex 0.95 2.425 14
      vertex 1.92701 3.50523 14
      vertex 1.70312 3.61931 14
    endloop
  endfacet
  facet normal 0 0 1
    outer loop
      vertex 0.95 2.425 14
      vertex 1.70312 3.61931 14
      vertex 1.4725 3.71911 14
    endloop
  endfacet
  facet normal 0 0 1
    outer loop
      vertex 0.95 2.425 14
      vertex 1.4725 3.71911 14
      vertex 1.23607 3.80423 14
    endloop
  endfacet
  facet normal 0 0 1
    outer loop
      vertex 0.95 2.425 14
      vertex 1.23607 3.80423 14
      vertex 0.994759 3.87433 14
    endloop
  endfacet
  facet normal 0 0 1
    outer loop
      vertex 2.73819 2.91587 14
      vertex 0.95 2.425 14
      vertex 2.425 0.95 14
    endloop
  endfacet
  facet normal 0 0 1
    outer loop
      vertex 2.425 0.95 14
      vertex 0.95 2.425 14
      vertex 0.95 0.95 14
    endloop
  endfacet
  facet normal -0 0 1
    outer loop
      vertex 0.95 -2.425 14
      vertex 2.73819 -2.91587 14
      vertex 2.425 -0.95 14
    endloop
  endfacet
  facet normal 0 0 1
    outer loop
      vertex 2.73819 -2.91587 14
      vertex 0.95 -2.425 14
      vertex 2.5497 -3.08205 14
    endloop
  endfacet
  facet normal 0 0 1
    outer loop
      vertex 2.5497 -3.08205 14
      vertex 0.95 -2.425 14
      vertex 2.35114 -3.23607 14
    endloop
  endfacet
  facet normal 0 0 1
    outer loop
      vertex 2.35114 -3.23607 14
      vertex 0.95 -2.425 14
      vertex 2.14331 -3.37731 14
    endloop
  endfacet
  facet normal 0 0 1
    outer loop
      vertex 2.14331 -3.37731 14
      vertex 0.95 -2.425 14
      vertex 1.92701 -3.50523 14
    endloop
  endfacet
  facet normal 0 0 1
    outer loop
      vertex 1.92701 -3.50523 14
      vertex 0.95 -2.425 14
      vertex 1.70312 -3.61931 14
    endloop
  endfacet
  facet normal 0 0 1
    outer loop
      vertex 1.70312 -3.61931 14
      vertex 0.95 -2.425 14
      vertex 1.4725 -3.71911 14
    endloop
  endfacet
  facet normal 0 0 1
    outer loop
      vertex 1.4725 -3.71911 14
      vertex 0.95 -2.425 14
      vertex 1.23607 -3.80423 14
    endloop
  endfacet
  facet normal 0 0 1
    outer loop
      vertex 0.95 -2.425 14
      vertex 2.425 -0.95 14
      vertex 0.95 -0.95 14
    endloop
  endfacet
  facet normal 0 0 1
    outer loop
      vertex 1.23607 -3.80423 14
      vertex 0.95 -2.425 14
      vertex 0.994759 -3.87433 14
    endloop
  endfacet
  facet normal 0 0 1
    outer loop
      vertex 0.95 -2.425 14
      vertex 0.749525 -3.92915 14
      vertex 0.994759 -3.87433 14
    endloop
  endfacet
  facet normal 0 0 1
    outer loop
      vertex 0.95 -2.425 14
      vertex 0.501332 -3.96846 14
      vertex 0.749525 -3.92915 14
    endloop
  endfacet
  facet normal 0 0 1
    outer loop
      vertex 0.95 -2.425 14
      vertex 0.251162 -3.99211 14
      vertex 0.501332 -3.96846 14
    endloop
  endfacet
  facet normal 0 0 1
    outer loop
      vertex 0.95 -2.425 14
      vertex 0 -4 14
      vertex 0.251162 -3.99211 14
    endloop
  endfacet
  facet normal -0 0 1
    outer loop
      vertex -0.95 -2.425 14
      vertex 0 -4 14
      vertex 0.95 -2.425 14
    endloop
  endfacet
  facet normal 0 0 1
    outer loop
      vertex 0 -4 14
      vertex -0.95 -2.425 14
      vertex -0.251162 -3.99211 14
    endloop
  endfacet
  facet normal 0 0 1
    outer loop
      vertex -0.251162 -3.99211 14
      vertex -0.95 -2.425 14
      vertex -0.501332 -3.96846 14
    endloop
  endfacet
  facet normal 0 0 1
    outer loop
      vertex -0.501332 -3.96846 14
      vertex -0.95 -2.425 14
      vertex -0.749525 -3.92915 14
    endloop
  endfacet
  facet normal 0 0 1
    outer loop
      vertex -0.749525 -3.92915 14
      vertex -0.95 -2.425 14
      vertex -0.994759 -3.87433 14
    endloop
  endfacet
  facet normal -0.338738 -0.940881 0
    outer loop
      vertex -1.4725 -3.71911 0
      vertex -1.23607 -3.80423 14
      vertex -1.4725 -3.71911 14
    endloop
  endfacet
  facet normal -0.338738 -0.940881 -0
    outer loop
      vertex -1.23607 -3.80423 14
      vertex -1.4725 -3.71911 0
      vertex -1.23607 -3.80423 0
    endloop
  endfacet
  facet normal -0.453998 -0.891003 0
    outer loop
      vertex -1.92701 -3.50523 0
      vertex -1.70312 -3.61931 14
      vertex -1.92701 -3.50523 14
    endloop
  endfacet
  facet normal -0.453998 -0.891003 -0
    outer loop
      vertex -1.70312 -3.61931 14
      vertex -1.92701 -3.50523 0
      vertex -1.70312 -3.61931 0
    endloop
  endfacet
  facet normal 0.827083 -0.56208 0
    outer loop
      vertex 3.23607 -2.35114 14
      vertex 3.37731 -2.14331 0
      vertex 3.37731 -2.14331 14
    endloop
  endfacet
  facet normal 0.827083 -0.56208 0
    outer loop
      vertex 3.37731 -2.14331 0
      vertex 3.23607 -2.35114 14
      vertex 3.23607 -2.35114 0
    endloop
  endfacet
  facet normal 0.707107 -0.707107 0
    outer loop
      vertex 2.73819 -2.91587 14
      vertex 2.91587 -2.73819 0
      vertex 2.91587 -2.73819 14
    endloop
  endfacet
  facet normal 0.707107 -0.707107 0
    outer loop
      vertex 2.91587 -2.73819 0
      vertex 2.73819 -2.91587 14
      vertex 2.73819 -2.91587 0
    endloop
  endfacet
  facet normal -0.790153 -0.61291 0
    outer loop
      vertex -3.08205 -2.5497 0
      vertex -3.23607 -2.35114 14
      vertex -3.23607 -2.35114 0
    endloop
  endfacet
  facet normal -0.790153 -0.61291 0
    outer loop
      vertex -3.23607 -2.35114 14
      vertex -3.08205 -2.5497 0
      vertex -3.08205 -2.5497 14
    endloop
  endfacet
  facet normal -0.0313985 -0.999507 0
    outer loop
      vertex -0.251162 -3.99211 0
      vertex 0 -4 14
      vertex -0.251162 -3.99211 14
    endloop
  endfacet
  facet normal -0.0313985 -0.999507 -0
    outer loop
      vertex 0 -4 14
      vertex -0.251162 -3.99211 0
      vertex 0 -4 0
    endloop
  endfacet
  facet normal 0.56208 -0.827083 0
    outer loop
      vertex 2.14331 -3.37731 0
      vertex 2.35114 -3.23607 14
      vertex 2.14331 -3.37731 14
    endloop
  endfacet
  facet normal 0.56208 -0.827083 0
    outer loop
      vertex 2.35114 -3.23607 14
      vertex 2.14331 -3.37731 0
      vertex 2.35114 -3.23607 0
    endloop
  endfacet
  facet normal 0.999507 -0.0313985 0
    outer loop
      vertex 3.99211 -0.251162 14
      vertex 4 0 0
      vertex 4 0 14
    endloop
  endfacet
  facet normal 0.999507 -0.0313985 0
    outer loop
      vertex 4 0 0
      vertex 3.99211 -0.251162 14
      vertex 3.99211 -0.251162 0
    endloop
  endfacet
  facet normal 0 0 -1
    outer loop
      vertex 2.55 -1.55 0
      vertex 4 0 0
      vertex 3.99211 -0.251162 0
    endloop
  endfacet
  facet normal 0 0 -1
    outer loop
      vertex 2.55 -1.55 0
      vertex 3.99211 -0.251162 0
      vertex 3.96846 -0.501332 0
    endloop
  endfacet
  facet normal 0 0 -1
    outer loop
      vertex 2.55 1.55 0
      vertex 4 0 0
      vertex 2.55 -1.55 0
    endloop
  endfacet
  facet normal 0 0 -1
    outer loop
      vertex 2.55 -1.55 0
      vertex 3.96846 -0.501332 0
      vertex 3.92915 -0.749525 0
    endloop
  endfacet
  facet normal 0 0 -1
    outer loop
      vertex 4 0 0
      vertex 2.55 1.55 0
      vertex 3.99211 0.251162 0
    endloop
  endfacet
  facet normal 0 0 -1
    outer loop
      vertex 2.55 -1.55 0
      vertex 3.92915 -0.749525 0
      vertex 3.87433 -0.994759 0
    endloop
  endfacet
  facet normal 0 0 -1
    outer loop
      vertex 3.99211 0.251162 0
      vertex 2.55 1.55 0
      vertex 3.96846 0.501332 0
    endloop
  endfacet
  facet normal 0 0 -1
    outer loop
      vertex 2.55 -1.55 0
      vertex 3.87433 -0.994759 0
      vertex 3.80423 -1.23607 0
    endloop
  endfacet
  facet normal 0 0 -1
    outer loop
      vertex 3.96846 0.501332 0
      vertex 2.55 1.55 0
      vertex 3.92915 0.749525 0
    endloop
  endfacet
  facet normal 0 0 -1
    outer loop
      vertex 2.55 -1.55 0
      vertex 3.80423 -1.23607 0
      vertex 3.71911 -1.4725 0
    endloop
  endfacet
  facet normal 0 0 -1
    outer loop
      vertex 3.92915 0.749525 0
      vertex 2.55 1.55 0
      vertex 3.87433 0.994759 0
    endloop
  endfacet
  facet normal 0 0 -1
    outer loop
      vertex 2.55 -1.55 0
      vertex 3.71911 -1.4725 0
      vertex 3.61931 -1.70312 0
    endloop
  endfacet
  facet normal 0 0 -1
    outer loop
      vertex 3.87433 0.994759 0
      vertex 2.55 1.55 0
      vertex 3.80423 1.23607 0
    endloop
  endfacet
  facet normal 0 0 -1
    outer loop
      vertex 2.55 -1.55 0
      vertex 3.61931 -1.70312 0
      vertex 3.50523 -1.92701 0
    endloop
  endfacet
  facet normal 0 0 -1
    outer loop
      vertex 3.80423 1.23607 0
      vertex 2.55 1.55 0
      vertex 3.71911 1.4725 0
    endloop
  endfacet
  facet normal 0 0 -1
    outer loop
      vertex 2.55 -1.55 0
      vertex 3.50523 -1.92701 0
      vertex 3.37731 -2.14331 0
    endloop
  endfacet
  facet normal 0 0 -1
    outer loop
      vertex 3.71911 1.4725 0
      vertex 2.55 1.55 0
      vertex 3.61931 1.70312 0
    endloop
  endfacet
  facet normal 0 0 -1
    outer loop
      vertex 2.55 -1.55 0
      vertex 3.37731 -2.14331 0
      vertex 3.23607 -2.35114 0
    endloop
  endfacet
  facet normal -0 0 -1
    outer loop
      vertex 3.61931 1.70312 0
      vertex 2.55 1.55 0
      vertex 3.50523 1.92701 0
    endloop
  endfacet
  facet normal 0 0 -1
    outer loop
      vertex 2.55 -1.55 0
      vertex 3.23607 -2.35114 0
      vertex 3.08205 -2.5497 0
    endloop
  endfacet
  facet normal -0 0 -1
    outer loop
      vertex 3.50523 1.92701 0
      vertex 2.55 1.55 0
      vertex 3.37731 2.14331 0
    endloop
  endfacet
  facet normal 0 0 -1
    outer loop
      vertex 2.55 -1.55 0
      vertex 3.08205 -2.5497 0
      vertex 2.91587 -2.73819 0
    endloop
  endfacet
  facet normal -0 0 -1
    outer loop
      vertex 3.37731 2.14331 0
      vertex 2.55 1.55 0
      vertex 3.23607 2.35114 0
    endloop
  endfacet
  facet normal 0 0 -1
    outer loop
      vertex 2.55 -1.55 0
      vertex 2.91587 -2.73819 0
      vertex 2.73819 -2.91587 0
    endloop
  endfacet
  facet normal -0 0 -1
    outer loop
      vertex 3.23607 2.35114 0
      vertex 2.55 1.55 0
      vertex 3.08205 2.5497 0
    endloop
  endfacet
  facet normal -0 0 -1
    outer loop
      vertex 3.08205 2.5497 0
      vertex 2.55 1.55 0
      vertex 2.91587 2.73819 0
    endloop
  endfacet
  facet normal 0 0 -1
    outer loop
      vertex 2.5497 -3.08205 0
      vertex 2.55 -1.55 0
      vertex 2.73819 -2.91587 0
    endloop
  endfacet
  facet normal 0 0 -1
    outer loop
      vertex 2.35114 -3.23607 0
      vertex 2.55 -1.55 0
      vertex 2.5497 -3.08205 0
    endloop
  endfacet
  facet normal 0 0 -1
    outer loop
      vertex 2.14331 -3.37731 0
      vertex 2.55 -1.55 0
      vertex 2.35114 -3.23607 0
    endloop
  endfacet
  facet normal 0 0 -1
    outer loop
      vertex 1.92701 -3.50523 0
      vertex 2.55 -1.55 0
      vertex 2.14331 -3.37731 0
    endloop
  endfacet
  facet normal 0 0 -1
    outer loop
      vertex 1.70312 -3.61931 0
      vertex 2.55 -1.55 0
      vertex 1.92701 -3.50523 0
    endloop
  endfacet
  facet normal 0 0 -1
    outer loop
      vertex 1.4725 -3.71911 0
      vertex 2.55 -1.55 0
      vertex 1.70312 -3.61931 0
    endloop
  endfacet
  facet normal 0 0 -1
    outer loop
      vertex 1.23607 -3.80423 0
      vertex 2.55 -1.55 0
      vertex 1.4725 -3.71911 0
    endloop
  endfacet
  facet normal 0 0 -1
    outer loop
      vertex 0.994759 -3.87433 0
      vertex 2.55 -1.55 0
      vertex 1.23607 -3.80423 0
    endloop
  endfacet
  facet normal 0 0 -1
    outer loop
      vertex 0.749525 -3.92915 0
      vertex 2.55 -1.55 0
      vertex 0.994759 -3.87433 0
    endloop
  endfacet
  facet normal 0 0 -1
    outer loop
      vertex 0.501332 -3.96846 0
      vertex 2.55 -1.55 0
      vertex 0.749525 -3.92915 0
    endloop
  endfacet
  facet normal 0 0 -1
    outer loop
      vertex 0.251162 -3.99211 0
      vertex 2.55 -1.55 0
      vertex 0.501332 -3.96846 0
    endloop
  endfacet
  facet normal 0 0 -1
    outer loop
      vertex 0 -4 0
      vertex 2.55 -1.55 0
      vertex 0.251162 -3.99211 0
    endloop
  endfacet
  facet normal 0 0 -1
    outer loop
      vertex -2.55 -1.55 0
      vertex 0 -4 0
      vertex -0.251162 -3.99211 0
    endloop
  endfacet
  facet normal 0 0 -1
    outer loop
      vertex -2.55 -1.55 0
      vertex -0.251162 -3.99211 0
      vertex -0.501332 -3.96846 0
    endloop
  endfacet
  facet normal 0 0 -1
    outer loop
      vertex -2.55 -1.55 0
      vertex -0.501332 -3.96846 0
      vertex -0.749525 -3.92915 0
    endloop
  endfacet
  facet normal 0 0 -1
    outer loop
      vertex -2.55 -1.55 0
      vertex -0.749525 -3.92915 0
      vertex -0.994759 -3.87433 0
    endloop
  endfacet
  facet normal 0 0 -1
    outer loop
      vertex -2.55 -1.55 0
      vertex -0.994759 -3.87433 0
      vertex -1.23607 -3.80423 0
    endloop
  endfacet
  facet normal 0 0 -1
    outer loop
      vertex -2.55 -1.55 0
      vertex -1.23607 -3.80423 0
      vertex -1.4725 -3.71911 0
    endloop
  endfacet
  facet normal 0 0 -1
    outer loop
      vertex -2.55 -1.55 0
      vertex -1.4725 -3.71911 0
      vertex -1.70312 -3.61931 0
    endloop
  endfacet
  facet normal 0 0 -1
    outer loop
      vertex -2.55 -1.55 0
      vertex -1.70312 -3.61931 0
      vertex -1.92701 -3.50523 0
    endloop
  endfacet
  facet normal 0 0 -1
    outer loop
      vertex -2.55 -1.55 0
      vertex -1.92701 -3.50523 0
      vertex -2.14331 -3.37731 0
    endloop
  endfacet
  facet normal 0 0 -1
    outer loop
      vertex -2.55 -1.55 0
      vertex -2.14331 -3.37731 0
      vertex -2.35114 -3.23607 0
    endloop
  endfacet
  facet normal 0 0 -1
    outer loop
      vertex -2.55 -1.55 0
      vertex -2.35114 -3.23607 0
      vertex -2.5497 -3.08205 0
    endloop
  endfacet
  facet normal 0 0 -1
    outer loop
      vertex 0 -4 0
      vertex -2.55 -1.55 0
      vertex 2.55 -1.55 0
    endloop
  endfacet
  facet normal 0 0 -1
    outer loop
      vertex -2.91587 -2.73819 0
      vertex -2.55 -1.55 0
      vertex -2.73819 -2.91587 0
    endloop
  endfacet
  facet normal 0 0 -1
    outer loop
      vertex -2.73819 -2.91587 0
      vertex -2.55 -1.55 0
      vertex -2.5497 -3.08205 0
    endloop
  endfacet
  facet normal -0 0 -1
    outer loop
      vertex 2.91587 2.73819 0
      vertex 2.55 1.55 0
      vertex 2.73819 2.91587 0
    endloop
  endfacet
  facet normal 0 0 -1
    outer loop
      vertex 2.55 1.55 0
      vertex 2.5497 3.08205 0
      vertex 2.73819 2.91587 0
    endloop
  endfacet
  facet normal 0 0 -1
    outer loop
      vertex 2.55 1.55 0
      vertex 2.35114 3.23607 0
      vertex 2.5497 3.08205 0
    endloop
  endfacet
  facet normal 0 0 -1
    outer loop
      vertex 2.55 1.55 0
      vertex 2.14331 3.37731 0
      vertex 2.35114 3.23607 0
    endloop
  endfacet
  facet normal 0 0 -1
    outer loop
      vertex 2.55 1.55 0
      vertex 1.92701 3.50523 0
      vertex 2.14331 3.37731 0
    endloop
  endfacet
  facet normal 0 0 -1
    outer loop
      vertex 2.55 1.55 0
      vertex 1.70312 3.61931 0
      vertex 1.92701 3.50523 0
    endloop
  endfacet
  facet normal 0 0 -1
    outer loop
      vertex 2.55 1.55 0
      vertex 1.4725 3.71911 0
      vertex 1.70312 3.61931 0
    endloop
  endfacet
  facet normal 0 0 -1
    outer loop
      vertex 2.55 1.55 0
      vertex 1.23607 3.80423 0
      vertex 1.4725 3.71911 0
    endloop
  endfacet
  facet normal 0 0 -1
    outer loop
      vertex 2.55 1.55 0
      vertex 0.994759 3.87433 0
      vertex 1.23607 3.80423 0
    endloop
  endfacet
  facet normal 0 0 -1
    outer loop
      vertex 2.55 1.55 0
      vertex 0.749525 3.92915 0
      vertex 0.994759 3.87433 0
    endloop
  endfacet
  facet normal 0 0 -1
    outer loop
      vertex 2.55 1.55 0
      vertex 0.501332 3.96846 0
      vertex 0.749525 3.92915 0
    endloop
  endfacet
  facet normal 0 0 -1
    outer loop
      vertex 2.55 1.55 0
      vertex 0.251162 3.99211 0
      vertex 0.501332 3.96846 0
    endloop
  endfacet
  facet normal 0 0 -1
    outer loop
      vertex 2.55 1.55 0
      vertex 0 4 0
      vertex 0.251162 3.99211 0
    endloop
  endfacet
  facet normal 0 0 -1
    outer loop
      vertex -2.55 1.55 0
      vertex 0 4 0
      vertex 2.55 1.55 0
    endloop
  endfacet
  facet normal 0 0 -1
    outer loop
      vertex 0 4 0
      vertex -2.55 1.55 0
      vertex -0.251162 3.99211 0
    endloop
  endfacet
  facet normal 0 0 -1
    outer loop
      vertex -0.251162 3.99211 0
      vertex -2.55 1.55 0
      vertex -0.501332 3.96846 0
    endloop
  endfacet
  facet normal 0 0 -1
    outer loop
      vertex -0.501332 3.96846 0
      vertex -2.55 1.55 0
      vertex -0.749525 3.92915 0
    endloop
  endfacet
  facet normal 0 0 -1
    outer loop
      vertex -0.749525 3.92915 0
      vertex -2.55 1.55 0
      vertex -0.994759 3.87433 0
    endloop
  endfacet
  facet normal 0 0 -1
    outer loop
      vertex -0.994759 3.87433 0
      vertex -2.55 1.55 0
      vertex -1.23607 3.80423 0
    endloop
  endfacet
  facet normal 0 0 -1
    outer loop
      vertex -1.23607 3.80423 0
      vertex -2.55 1.55 0
      vertex -1.4725 3.71911 0
    endloop
  endfacet
  facet normal 0 0 -1
    outer loop
      vertex -1.4725 3.71911 0
      vertex -2.55 1.55 0
      vertex -1.70312 3.61931 0
    endloop
  endfacet
  facet normal 0 0 -1
    outer loop
      vertex -1.70312 3.61931 0
      vertex -2.55 1.55 0
      vertex -1.92701 3.50523 0
    endloop
  endfacet
  facet normal 0 0 -1
    outer loop
      vertex -1.92701 3.50523 0
      vertex -2.55 1.55 0
      vertex -2.14331 3.37731 0
    endloop
  endfacet
  facet normal 0 0 -1
    outer loop
      vertex -2.14331 3.37731 0
      vertex -2.55 1.55 0
      vertex -2.35114 3.23607 0
    endloop
  endfacet
  facet normal 0 0 -1
    outer loop
      vertex -2.35114 3.23607 0
      vertex -2.55 1.55 0
      vertex -2.5497 3.08205 0
    endloop
  endfacet
  facet normal 0 0 -1
    outer loop
      vertex -3.08205 -2.5497 0
      vertex -2.55 -1.55 0
      vertex -2.91587 -2.73819 0
    endloop
  endfacet
  facet normal 0 0 -1
    outer loop
      vertex -2.55 1.55 0
      vertex -2.73819 2.91587 0
      vertex -2.5497 3.08205 0
    endloop
  endfacet
  facet normal 0 0 -1
    outer loop
      vertex -3.23607 -2.35114 0
      vertex -2.55 -1.55 0
      vertex -3.08205 -2.5497 0
    endloop
  endfacet
  facet normal 0 0 -1
    outer loop
      vertex -2.55 1.55 0
      vertex -2.91587 2.73819 0
      vertex -2.73819 2.91587 0
    endloop
  endfacet
  facet normal 0 0 -1
    outer loop
      vertex -3.37731 -2.14331 0
      vertex -2.55 -1.55 0
      vertex -3.23607 -2.35114 0
    endloop
  endfacet
  facet normal 0 0 -1
    outer loop
      vertex -2.55 1.55 0
      vertex -3.08205 2.5497 0
      vertex -2.91587 2.73819 0
    endloop
  endfacet
  facet normal 0 0 -1
    outer loop
      vertex -3.50523 -1.92701 0
      vertex -2.55 -1.55 0
      vertex -3.37731 -2.14331 0
    endloop
  endfacet
  facet normal 0 0 -1
    outer loop
      vertex -2.55 1.55 0
      vertex -3.23607 2.35114 0
      vertex -3.08205 2.5497 0
    endloop
  endfacet
  facet normal 0 0 -1
    outer loop
      vertex -3.61931 -1.70312 0
      vertex -2.55 -1.55 0
      vertex -3.50523 -1.92701 0
    endloop
  endfacet
  facet normal 0 0 -1
    outer loop
      vertex -2.55 1.55 0
      vertex -3.37731 2.14331 0
      vertex -3.23607 2.35114 0
    endloop
  endfacet
  facet normal 0 0 -1
    outer loop
      vertex -3.71911 -1.4725 0
      vertex -2.55 -1.55 0
      vertex -3.61931 -1.70312 0
    endloop
  endfacet
  facet normal 0 0 -1
    outer loop
      vertex -2.55 1.55 0
      vertex -3.50523 1.92701 0
      vertex -3.37731 2.14331 0
    endloop
  endfacet
  facet normal 0 0 -1
    outer loop
      vertex -3.80423 -1.23607 0
      vertex -2.55 -1.55 0
      vertex -3.71911 -1.4725 0
    endloop
  endfacet
  facet normal 0 0 -1
    outer loop
      vertex -2.55 1.55 0
      vertex -3.61931 1.70312 0
      vertex -3.50523 1.92701 0
    endloop
  endfacet
  facet normal 0 0 -1
    outer loop
      vertex -3.87433 -0.994759 0
      vertex -2.55 -1.55 0
      vertex -3.80423 -1.23607 0
    endloop
  endfacet
  facet normal -0 0 -1
    outer loop
      vertex -2.55 1.55 0
      vertex -3.71911 1.4725 0
      vertex -3.61931 1.70312 0
    endloop
  endfacet
  facet normal 0 0 -1
    outer loop
      vertex -3.92915 -0.749525 0
      vertex -2.55 -1.55 0
      vertex -3.87433 -0.994759 0
    endloop
  endfacet
  facet normal 0 0 -1
    outer loop
      vertex -2.55 1.55 0
      vertex -3.80423 1.23607 0
      vertex -3.71911 1.4725 0
    endloop
  endfacet
  facet normal 0 0 -1
    outer loop
      vertex -3.96846 -0.501332 0
      vertex -2.55 -1.55 0
      vertex -3.92915 -0.749525 0
    endloop
  endfacet
  facet normal 0 0 -1
    outer loop
      vertex -2.55 1.55 0
      vertex -3.87433 0.994759 0
      vertex -3.80423 1.23607 0
    endloop
  endfacet
  facet normal 0 0 -1
    outer loop
      vertex -3.99211 -0.251162 0
      vertex -2.55 -1.55 0
      vertex -3.96846 -0.501332 0
    endloop
  endfacet
  facet normal 0 0 -1
    outer loop
      vertex -2.55 1.55 0
      vertex -3.92915 0.749525 0
      vertex -3.87433 0.994759 0
    endloop
  endfacet
  facet normal 0 0 -1
    outer loop
      vertex -4 0 0
      vertex -2.55 -1.55 0
      vertex -3.99211 -0.251162 0
    endloop
  endfacet
  facet normal 0 0 -1
    outer loop
      vertex -2.55 1.55 0
      vertex -3.96846 0.501332 0
      vertex -3.92915 0.749525 0
    endloop
  endfacet
  facet normal 0 0 -1
    outer loop
      vertex -2.55 -1.55 0
      vertex -4 0 0
      vertex -2.55 1.55 0
    endloop
  endfacet
  facet normal 0 0 -1
    outer loop
      vertex -2.55 1.55 0
      vertex -3.99211 0.251162 0
      vertex -3.96846 0.501332 0
    endloop
  endfacet
  facet normal 0 0 -1
    outer loop
      vertex -2.55 1.55 0
      vertex -4 0 0
      vertex -3.99211 0.251162 0
    endloop
  endfacet
  facet normal -0.397154 0.917752 0
    outer loop
      vertex -1.4725 3.71911 0
      vertex -1.70312 3.61931 14
      vertex -1.4725 3.71911 14
    endloop
  endfacet
  facet normal -0.397154 0.917752 0
    outer loop
      vertex -1.70312 3.61931 14
      vertex -1.4725 3.71911 0
      vertex -1.70312 3.61931 0
    endloop
  endfacet
  facet normal 0.156435 0.987688 -0
    outer loop
      vertex 0.749525 3.92915 0
      vertex 0.501332 3.96846 14
      vertex 0.749525 3.92915 14
    endloop
  endfacet
  facet normal 0.156435 0.987688 0
    outer loop
      vertex 0.501332 3.96846 14
      vertex 0.749525 3.92915 0
      vertex 0.501332 3.96846 0
    endloop
  endfacet
  facet normal -0.960301 0.278964 0
    outer loop
      vertex -3.87433 0.994759 0
      vertex -3.80423 1.23607 14
      vertex -3.80423 1.23607 0
    endloop
  endfacet
  facet normal -0.960301 0.278964 0
    outer loop
      vertex -3.80423 1.23607 14
      vertex -3.87433 0.994759 0
      vertex -3.87433 0.994759 14
    endloop
  endfacet
  facet normal 0.790153 0.61291 0
    outer loop
      vertex 3.23607 2.35114 14
      vertex 3.08205 2.5497 0
      vertex 3.08205 2.5497 14
    endloop
  endfacet
  facet normal 0.790153 0.61291 0
    outer loop
      vertex 3.08205 2.5497 0
      vertex 3.23607 2.35114 14
      vertex 3.23607 2.35114 0
    endloop
  endfacet
  facet normal -0.56208 -0.827083 0
    outer loop
      vertex -2.35114 -3.23607 0
      vertex -2.14331 -3.37731 14
      vertex -2.35114 -3.23607 14
    endloop
  endfacet
  facet normal -0.56208 -0.827083 -0
    outer loop
      vertex -2.14331 -3.37731 14
      vertex -2.35114 -3.23607 0
      vertex -2.14331 -3.37731 0
    endloop
  endfacet
  facet normal 0.278964 0.960301 -0
    outer loop
      vertex 1.23607 3.80423 0
      vertex 0.994759 3.87433 14
      vertex 1.23607 3.80423 14
    endloop
  endfacet
  facet normal 0.278964 0.960301 0
    outer loop
      vertex 0.994759 3.87433 14
      vertex 1.23607 3.80423 0
      vertex 0.994759 3.87433 0
    endloop
  endfacet
  facet normal -0.891003 0.453998 0
    outer loop
      vertex -3.61931 1.70312 0
      vertex -3.50523 1.92701 14
      vertex -3.50523 1.92701 0
    endloop
  endfacet
  facet normal -0.891003 0.453998 0
    outer loop
      vertex -3.50523 1.92701 14
      vertex -3.61931 1.70312 0
      vertex -3.61931 1.70312 14
    endloop
  endfacet
  facet normal -0.453998 0.891003 0
    outer loop
      vertex -1.70312 3.61931 0
      vertex -1.92701 3.50523 14
      vertex -1.70312 3.61931 14
    endloop
  endfacet
  facet normal -0.453998 0.891003 0
    outer loop
      vertex -1.92701 3.50523 14
      vertex -1.70312 3.61931 0
      vertex -1.92701 3.50523 0
    endloop
  endfacet
  facet normal 0.61291 -0.790153 0
    outer loop
      vertex 2.35114 -3.23607 0
      vertex 2.5497 -3.08205 14
      vertex 2.35114 -3.23607 14
    endloop
  endfacet
  facet normal 0.61291 -0.790153 0
    outer loop
      vertex 2.5497 -3.08205 14
      vertex 2.35114 -3.23607 0
      vertex 2.5497 -3.08205 0
    endloop
  endfacet
  facet normal -0.61291 -0.790153 0
    outer loop
      vertex -2.5497 -3.08205 0
      vertex -2.35114 -3.23607 14
      vertex -2.5497 -3.08205 14
    endloop
  endfacet
  facet normal -0.61291 -0.790153 -0
    outer loop
      vertex -2.35114 -3.23607 14
      vertex -2.5497 -3.08205 0
      vertex -2.35114 -3.23607 0
    endloop
  endfacet
  facet normal -1 0 0
    outer loop
      vertex 2.55 -1.55 0
      vertex 2.55 1.55 6
      vertex 2.55 1.55 0
    endloop
  endfacet
  facet normal -1 -0 0
    outer loop
      vertex 2.55 1.55 6
      vertex 2.55 -1.55 0
      vertex 2.55 -1.55 6
    endloop
  endfacet
  facet normal 0 0 -1
    outer loop
      vertex -0.95 -1.55 6
      vertex -2.425 -0.95 6
      vertex -0.95 -0.95 6
    endloop
  endfacet
  facet normal -0 0 -1
    outer loop
      vertex -2.425 -0.95 6
      vertex -2.55 -1.55 6
      vertex -2.425 0.95 6
    endloop
  endfacet
  facet normal 0 0 -1
    outer loop
      vertex -2.55 -1.55 6
      vertex -2.425 -0.95 6
      vertex -0.95 -1.55 6
    endloop
  endfacet
  facet normal 0 0 -1
    outer loop
      vertex -2.425 0.95 6
      vertex -0.95 1.55 6
      vertex -0.95 0.95 6
    endloop
  endfacet
  facet normal 0 0 -1
    outer loop
      vertex -2.425 0.95 6
      vertex -2.55 1.55 6
      vertex -0.95 1.55 6
    endloop
  endfacet
  facet normal 0 0 -1
    outer loop
      vertex -2.55 1.55 6
      vertex -2.425 0.95 6
      vertex -2.55 -1.55 6
    endloop
  endfacet
  facet normal 0 0 -1
    outer loop
      vertex 2.55 -1.55 6
      vertex 2.425 -0.95 6
      vertex 2.55 1.55 6
    endloop
  endfacet
  facet normal 0 0 -1
    outer loop
      vertex 0.95 -1.55 6
      vertex 2.425 -0.95 6
      vertex 2.55 -1.55 6
    endloop
  endfacet
  facet normal -0 0 -1
    outer loop
      vertex 2.425 -0.95 6
      vertex 0.95 -1.55 6
      vertex 0.95 -0.95 6
    endloop
  endfacet
  facet normal 0 0 -1
    outer loop
      vertex 2.425 0.95 6
      vertex 2.55 1.55 6
      vertex 2.425 -0.95 6
    endloop
  endfacet
  facet normal 0 0 -1
    outer loop
      vertex 0.95 1.55 6
      vertex 2.425 0.95 6
      vertex 0.95 0.95 6
    endloop
  endfacet
  facet normal 0 0 -1
    outer loop
      vertex 2.425 0.95 6
      vertex 0.95 1.55 6
      vertex 2.55 1.55 6
    endloop
  endfacet
  facet normal -0 0 1
    outer loop
      vertex -0.95 2.425 6
      vertex 0.95 1.55 6
      vertex 0.95 2.425 6
    endloop
  endfacet
  facet normal 0 0 1
    outer loop
      vertex 0.95 1.55 6
      vertex -0.95 2.425 6
      vertex -0.95 1.55 6
    endloop
  endfacet
  facet normal -0 0 1
    outer loop
      vertex -0.95 -1.55 6
      vertex 0.95 -2.425 6
      vertex 0.95 -1.55 6
    endloop
  endfacet
  facet normal 0 0 1
    outer loop
      vertex 0.95 -2.425 6
      vertex -0.95 -1.55 6
      vertex -0.95 -2.425 6
    endloop
  endfacet
  facet normal 1 -0 0
    outer loop
      vertex -2.55 -1.55 6
      vertex -2.55 1.55 0
      vertex -2.55 1.55 6
    endloop
  endfacet
  facet normal 1 0 0
    outer loop
      vertex -2.55 1.55 0
      vertex -2.55 -1.55 6
      vertex -2.55 -1.55 0
    endloop
  endfacet
  facet normal 0 -1 0
    outer loop
      vertex -2.55 1.55 0
      vertex -0.95 1.55 6
      vertex -2.55 1.55 6
    endloop
  endfacet
  facet normal 0 -1 -0
    outer loop
      vertex -0.95 1.55 6
      vertex -2.55 1.55 0
      vertex 0.95 1.55 6
    endloop
  endfacet
  facet normal 0 -1 0
    outer loop
      vertex 2.55 1.55 0
      vertex 0.95 1.55 6
      vertex -2.55 1.55 0
    endloop
  endfacet
  facet normal 0 -1 0
    outer loop
      vertex 0.95 1.55 6
      vertex 2.55 1.55 0
      vertex 2.55 1.55 6
    endloop
  endfacet
  facet normal 0 1 -0
    outer loop
      vertex 2.55 -1.55 0
      vertex 0.95 -1.55 6
      vertex 2.55 -1.55 6
    endloop
  endfacet
  facet normal 0 1 0
    outer loop
      vertex 0.95 -1.55 6
      vertex 2.55 -1.55 0
      vertex -0.95 -1.55 6
    endloop
  endfacet
  facet normal 0 1 0
    outer loop
      vertex -2.55 -1.55 0
      vertex -0.95 -1.55 6
      vertex 2.55 -1.55 0
    endloop
  endfacet
  facet normal 0 1 0
    outer loop
      vertex -0.95 -1.55 6
      vertex -2.55 -1.55 0
      vertex -2.55 -1.55 6
    endloop
  endfacet
  facet normal -1 0 0
    outer loop
      vertex 2.425 -0.95 6
      vertex 2.425 0.95 14
      vertex 2.425 0.95 6
    endloop
  endfacet
  facet normal -1 -0 0
    outer loop
      vertex 2.425 0.95 14
      vertex 2.425 -0.95 6
      vertex 2.425 -0.95 14
    endloop
  endfacet
  facet normal 1 -0 0
    outer loop
      vertex -2.425 -0.95 14
      vertex -2.425 0.95 6
      vertex -2.425 0.95 14
    endloop
  endfacet
  facet normal 1 0 0
    outer loop
      vertex -2.425 0.95 6
      vertex -2.425 -0.95 14
      vertex -2.425 -0.95 6
    endloop
  endfacet
  facet normal 0 -1 0
    outer loop
      vertex 0.95 0.95 6
      vertex 2.425 0.95 14
      vertex 0.95 0.95 14
    endloop
  endfacet
  facet normal 0 -1 -0
    outer loop
      vertex 2.425 0.95 14
      vertex 0.95 0.95 6
      vertex 2.425 0.95 6
    endloop
  endfacet
  facet normal 0 -1 0
    outer loop
      vertex -2.425 0.95 6
      vertex -0.95 0.95 14
      vertex -2.425 0.95 14
    endloop
  endfacet
  facet normal 0 -1 -0
    outer loop
      vertex -0.95 0.95 14
      vertex -2.425 0.95 6
      vertex -0.95 0.95 6
    endloop
  endfacet
  facet normal 0 1 -0
    outer loop
      vertex 2.425 -0.95 6
      vertex 0.95 -0.95 14
      vertex 2.425 -0.95 14
    endloop
  endfacet
  facet normal 0 1 0
    outer loop
      vertex 0.95 -0.95 14
      vertex 2.425 -0.95 6
      vertex 0.95 -0.95 6
    endloop
  endfacet
  facet normal 0 1 -0
    outer loop
      vertex -0.95 -0.95 6
      vertex -2.425 -0.95 14
      vertex -0.95 -0.95 14
    endloop
  endfacet
  facet normal 0 1 0
    outer loop
      vertex -2.425 -0.95 14
      vertex -0.95 -0.95 6
      vertex -2.425 -0.95 6
    endloop
  endfacet
  facet normal -1 0 0
    outer loop
      vertex 0.95 1.55 6
      vertex 0.95 2.425 14
      vertex 0.95 2.425 6
    endloop
  endfacet
  facet normal -1 0 0
    outer loop
      vertex 0.95 0.95 14
      vertex 0.95 1.55 6
      vertex 0.95 0.95 6
    endloop
  endfacet
  facet normal -1 0 0
    outer loop
      vertex 0.95 1.55 6
      vertex 0.95 0.95 14
      vertex 0.95 2.425 14
    endloop
  endfacet
  facet normal -1 0 0
    outer loop
      vertex 0.95 -1.55 6
      vertex 0.95 -0.95 14
      vertex 0.95 -0.95 6
    endloop
  endfacet
  facet normal -1 0 0
    outer loop
      vertex 0.95 -2.425 14
      vertex 0.95 -1.55 6
      vertex 0.95 -2.425 6
    endloop
  endfacet
  facet normal -1 0 0
    outer loop
      vertex 0.95 -1.55 6
      vertex 0.95 -2.425 14
      vertex 0.95 -0.95 14
    endloop
  endfacet
  facet normal 1 0 0
    outer loop
      vertex -0.95 -0.95 14
      vertex -0.95 -1.55 6
      vertex -0.95 -0.95 6
    endloop
  endfacet
  facet normal 1 -0 0
    outer loop
      vertex -0.95 -2.425 14
      vertex -0.95 -1.55 6
      vertex -0.95 -0.95 14
    endloop
  endfacet
  facet normal 1 0 0
    outer loop
      vertex -0.95 -1.55 6
      vertex -0.95 -2.425 14
      vertex -0.95 -2.425 6
    endloop
  endfacet
  facet normal 1 0 0
    outer loop
      vertex -0.95 2.425 14
      vertex -0.95 1.55 6
      vertex -0.95 2.425 6
    endloop
  endfacet
  facet normal 1 -0 0
    outer loop
      vertex -0.95 0.95 14
      vertex -0.95 1.55 6
      vertex -0.95 2.425 14
    endloop
  endfacet
  facet normal 1 0 0
    outer loop
      vertex -0.95 1.55 6
      vertex -0.95 0.95 14
      vertex -0.95 0.95 6
    endloop
  endfacet
  facet normal 0 -1 0
    outer loop
      vertex -0.95 2.425 6
      vertex 0.95 2.425 14
      vertex -0.95 2.425 14
    endloop
  endfacet
  facet normal 0 -1 -0
    outer loop
      vertex 0.95 2.425 14
      vertex -0.95 2.425 6
      vertex 0.95 2.425 6
    endloop
  endfacet
  facet normal 0 1 -0
    outer loop
      vertex 0.95 -2.425 6
      vertex -0.95 -2.425 14
      vertex 0.95 -2.425 14
    endloop
  endfacet
  facet normal 0 1 0
    outer loop
      vertex -0.95 -2.425 14
      vertex 0.95 -2.425 6
      vertex -0.95 -2.425 6
    endloop
  endfacet
endsolid OpenSCAD_Model
